<?xml version="1.0" encoding="UTF-8"?>
<svg version="1.1" xmlns="http://www.w3.org/2000/svg" width="288" height="277">
<path d="M0 0 C95.04 0 190.08 0 288 0 C288 91.41 288 182.82 288 277 C192.96 277 97.92 277 0 277 C0 185.59 0 94.18 0 0 Z " fill="#FCFCFC" transform="translate(0,0)"/>
<path d="M0 0 C92.4 0 184.8 0 280 0 C261.30650274 18.69349726 237.12438927 29.65628054 212 37 C211.24879883 37.22139648 210.49759766 37.44279297 209.72363281 37.67089844 C149.21934119 55.09306444 81.79065787 49.28669427 26 20 C19.59686872 16.43178517 13.77185257 12.16570386 7.9375 7.75 C7.37611328 7.32525391 6.81472656 6.90050781 6.23632812 6.46289062 C3.6241636 4.43693318 1.85329665 2.77994497 0 0 Z " fill="#0D0D0D" transform="translate(4,225)"/>
<path d="M0 0 C1.44971191 0.00858032 1.44971191 0.00858032 2.92871094 0.01733398 C17.13361223 0.37067198 28.56929216 6.37291374 38.4375 16.5625 C49.75999639 29.88714515 51.57608213 44.59393948 50.25 61.5 C48.16178804 73.90119475 39.50854686 84.51571957 29.6875 91.8515625 C26.31606291 94.13160489 23.02756303 95.98751345 19.25 97.5 C18.23486328 97.94666016 18.23486328 97.94666016 17.19921875 98.40234375 C6.22662265 102.51469842 -8.22599348 102.12465784 -19.04296875 97.828125 C-33.82081499 90.57781083 -42.46543306 81.08359366 -48.625 65.875 C-53.08613958 52.50606549 -51.48998036 40.15404761 -45.75 27.5 C-43.71629048 23.86202934 -41.44288619 20.67636888 -38.75 17.5 C-38.14285156 16.78199219 -37.53570312 16.06398438 -36.91015625 15.32421875 C-27.18559377 4.76441778 -14.11988213 -0.09740401 0 0 Z " fill="#F9F9F9" transform="translate(143.75,97.5)"/>
<path d="M0 0 C92.4 0 184.8 0 280 0 C280 6.27 280 12.54 280 19 C187.6 19 95.2 19 0 19 C0 12.73 0 6.46 0 0 Z " fill="#171716" transform="translate(3,60)"/>
<path d="M0 0 C0.70585739 0.27290359 1.41171478 0.54580719 2.13896179 0.82698059 C4.39034506 1.69828848 6.63868065 2.57713263 8.88671875 3.45703125 C11.81898719 4.59978927 14.75261655 5.73897506 17.6875 6.875 C18.42497971 7.16055756 19.16245941 7.44611511 19.92228699 7.74032593 C25.58737953 9.92047118 31.29389529 11.95999573 37.02508545 13.95866394 C45.95039076 17.08121731 54.78899425 20.43492369 63.63671875 23.76953125 C65.3508519 24.41422087 67.06504447 25.05875253 68.77929688 25.703125 C72.11244197 26.95623558 75.44527073 28.21018147 78.77783203 29.46484375 C85.70743507 32.07313895 92.64075387 34.67152295 99.57421875 37.26953125 C99.57421875 37.59953125 99.57421875 37.92953125 99.57421875 38.26953125 C25.65421875 38.26953125 -48.26578125 38.26953125 -124.42578125 38.26953125 C-122.24398072 36.08773072 -120.83918616 35.53187753 -117.97045898 34.48535156 C-117.04446396 34.14449524 -116.11846893 33.80363892 -115.16441345 33.45245361 C-114.15625076 33.08787048 -113.14808807 32.72328735 -112.109375 32.34765625 C-111.06491714 31.96518738 -110.02045929 31.58271851 -108.9443512 31.18865967 C-105.58587341 29.9604003 -102.22460001 28.73999146 -98.86328125 27.51953125 C-96.65542016 26.71272872 -94.44773579 25.90544237 -92.24023438 25.09765625 C-83.0855712 21.75288475 -73.92535709 18.42915828 -64.72265625 15.21875 C-58.29478641 12.97374831 -51.92965375 10.5803039 -45.5703125 8.1484375 C-43.69341532 7.43409778 -41.81646198 6.71990561 -39.93945312 6.00585938 C-37.06218851 4.91113753 -34.18691422 3.81213935 -31.31616211 2.70043945 C-28.48904619 1.60742721 -25.65555929 0.5326501 -22.8203125 -0.5390625 C-21.53590019 -1.04354164 -21.53590019 -1.04354164 -20.22554016 -1.55821228 C-12.47522212 -4.45451099 -7.57817182 -2.99232321 0 0 Z " fill="#040303" transform="translate(155.42578125,6.73046875)"/>
<path d="M0 0 C7.59 0 15.18 0 23 0 C23 41.91 23 83.82 23 127 C15.41 127 7.82 127 0 127 C0 85.09 0 43.18 0 0 Z " fill="#10100F" transform="translate(26,90)"/>
<path d="M0 0 C1.44971191 0.00858032 1.44971191 0.00858032 2.92871094 0.01733398 C17.13361223 0.37067198 28.56929216 6.37291374 38.4375 16.5625 C49.75999639 29.88714515 51.57608213 44.59393948 50.25 61.5 C48.16178804 73.90119475 39.50854686 84.51571957 29.6875 91.8515625 C26.31606291 94.13160489 23.02756303 95.98751345 19.25 97.5 C18.23486328 97.94666016 18.23486328 97.94666016 17.19921875 98.40234375 C6.22662265 102.51469842 -8.22599348 102.12465784 -19.04296875 97.828125 C-33.82081499 90.57781083 -42.46543306 81.08359366 -48.625 65.875 C-53.08613958 52.50606549 -51.48998036 40.15404761 -45.75 27.5 C-43.71629048 23.86202934 -41.44288619 20.67636888 -38.75 17.5 C-38.14285156 16.78199219 -37.53570312 16.06398438 -36.91015625 15.32421875 C-27.18559377 4.76441778 -14.11988213 -0.09740401 0 0 Z M-6.75 9.5 C-6.75 10.49 -6.75 11.48 -6.75 12.5 C-9.06 12.83 -11.37 13.16 -13.75 13.5 C-13.75 12.84 -13.75 12.18 -13.75 11.5 C-18.09684005 13.08066911 -21.91641881 14.91970497 -25.75 17.5 C-26.47965366 20.06282742 -26.47965366 20.06282742 -26.75 22.5 C-29.01669413 24.01112942 -31.1531954 24.63439847 -33.75 25.5 C-35.20929077 27.51723306 -35.20929077 27.51723306 -36.4375 29.9375 C-36.87449219 30.74058594 -37.31148437 31.54367188 -37.76171875 32.37109375 C-38.89035414 34.41115831 -38.89035414 34.41115831 -38.75 36.5 C-38.09 36.5 -37.43 36.5 -36.75 36.5 C-37.08 39.14 -37.41 41.78 -37.75 44.5 C-38.74 44.5 -39.73 44.5 -40.75 44.5 C-40.75 48.79 -40.75 53.08 -40.75 57.5 C-39.76 57.5 -38.77 57.5 -37.75 57.5 C-37.42 59.81 -37.09 62.12 -36.75 64.5 C-37.41 64.5 -38.07 64.5 -38.75 64.5 C-37.43320572 69.10877999 -35.78955429 72.76569044 -32.75 76.5 C-30.17938689 77.14767793 -30.17938689 77.14767793 -27.75 77.5 C-26.23887058 79.76669413 -25.61560153 81.9031954 -24.75 84.5 C-22.43130796 85.96293963 -22.43130796 85.96293963 -19.6875 87.1875 C-18.76839844 87.62449219 -17.84929687 88.06148438 -16.90234375 88.51171875 C-16.19207031 88.83785156 -15.48179687 89.16398437 -14.75 89.5 C-14.255 88.015 -14.255 88.015 -13.75 86.5 C-10.8125 87.3125 -10.8125 87.3125 -7.75 88.5 C-7.42 89.49 -7.09 90.48 -6.75 91.5 C-2.46 91.5 1.83 91.5 6.25 91.5 C6.25 90.51 6.25 89.52 6.25 88.5 C8.56 88.17 10.87 87.84 13.25 87.5 C13.58 88.16 13.91 88.82 14.25 89.5 C18.59684005 87.91933089 22.41641881 86.08029503 26.25 83.5 C26.97965366 80.93717258 26.97965366 80.93717258 27.25 78.5 C29.40101064 77.04286376 30.65286494 76.5 33.25 76.5 C34.84777524 74.32248821 34.84777524 74.32248821 36.375 71.625 C36.91382813 70.72007812 37.45265625 69.81515625 38.0078125 68.8828125 C39.4040893 66.65227978 39.4040893 66.65227978 39.25 64.5 C38.59 64.5 37.93 64.5 37.25 64.5 C37.58 62.19 37.91 59.88 38.25 57.5 C39.24 57.5 40.23 57.5 41.25 57.5 C41.25 52.88 41.25 48.26 41.25 43.5 C40.26 43.5 39.27 43.5 38.25 43.5 C37.755 40.035 37.755 40.035 37.25 36.5 C37.91 36.5 38.57 36.5 39.25 36.5 C37.66933089 32.15315995 35.83029503 28.33358119 33.25 24.5 C30.68717258 23.77034634 30.68717258 23.77034634 28.25 23.5 C26.79286376 21.34898936 26.25 20.09713506 26.25 17.5 C24.07248821 15.90222476 24.07248821 15.90222476 21.375 14.375 C20.01761719 13.56675781 20.01761719 13.56675781 18.6328125 12.7421875 C16.40227978 11.3459107 16.40227978 11.3459107 14.25 11.5 C14.25 12.16 14.25 12.82 14.25 13.5 C11.94 13.17 9.63 12.84 7.25 12.5 C7.25 11.51 7.25 10.52 7.25 9.5 C2.63 9.5 -1.99 9.5 -6.75 9.5 Z " fill="#2C2C2A" transform="translate(143.75,97.5)"/>
<path d="M0 0 C6.6 0 13.2 0 20 0 C20 41.91 20 83.82 20 127 C13.4 127 6.8 127 0 127 C0 85.09 0 43.18 0 0 Z " fill="#131313" transform="translate(239,90)"/>
<path d="M0 0 C3.3 0 6.6 0 10 0 C10 0.99 10 1.98 10 3 C11.134375 3.12375 12.26875 3.2475 13.4375 3.375 C14.613125 3.58125 15.78875 3.7875 17 4 C18 6 18 6 17.00390625 9.4765625 C16.53099953 10.86197936 16.05018356 12.24471547 15.5625 13.625 C15.31951172 14.33140625 15.07652344 15.0378125 14.82617188 15.765625 C14.22412795 17.51273287 13.61291983 19.25667786 13 21 C13.66 21 14.32 21 15 21 C15.495 21.99 15.495 21.99 16 23 C16.66 23 17.32 23 18 23 C18 23.66 18 24.32 18 25 C15.5625 24.625 15.5625 24.625 13 24 C12.505 23.01 12.505 23.01 12 22 C10.35 22 8.7 22 7 22 C7 21.34 7 20.68 7 20 C5.68 20 4.36 20 3 20 C3 20.66 3 21.32 3 22 C0.69 22 -1.62 22 -4 22 C-4.33 22.99 -4.66 23.98 -5 25 C-5.99 25.33 -6.98 25.66 -8 26 C-8.70211894 27.65204456 -9.36971413 29.31923769 -10 31 C-10.66 31.33 -11.32 31.66 -12 32 C-12 33.65 -12 35.3 -12 37 C-12.66 37 -13.32 37 -14 37 C-14 38.32 -14 39.64 -14 41 C-13.34 41 -12.68 41 -12 41 C-12 42.65 -12 44.3 -12 46 C-11.34 46.33 -10.68 46.66 -10 47 C-10 47.66 -10 48.32 -10 49 C-10.99 49 -11.98 49 -13 49 C-13 48.34 -13 47.68 -13 47 C-13.97582031 47.37253906 -14.95164062 47.74507812 -15.95703125 48.12890625 C-17.24200736 48.60725502 -18.52717367 49.08509308 -19.8125 49.5625 C-20.77639648 49.9327832 -20.77639648 49.9327832 -21.75976562 50.31054688 C-26.66015625 52.11328125 -26.66015625 52.11328125 -30 51 C-30.33 48.69 -30.66 46.38 -31 44 C-31.99 44 -32.98 44 -34 44 C-34 40.7 -34 37.4 -34 34 C-33.01 34 -32.02 34 -31 34 C-30.80426392 32.56359829 -30.61872184 31.12580496 -30.4375 29.6875 C-30.33308594 28.88699219 -30.22867188 28.08648437 -30.12109375 27.26171875 C-29.85244822 24.83182884 -29.85244822 24.83182884 -31 22 C-27.91428571 16.28571429 -27.91428571 16.28571429 -25 15.375 C-24.34 15.25125 -23.68 15.1275 -23 15 C-19.72423273 12.30230931 -18.5311796 9.87898831 -17 6 C-13.36280395 3.57520264 -11.14296518 3.61337423 -6.8125 3.375 C-5.54019531 3.30023438 -4.26789063 3.22546875 -2.95703125 3.1484375 C-1.49330078 3.07496094 -1.49330078 3.07496094 0 3 C0 2.01 0 1.02 0 0 Z " fill="#964977" transform="translate(139,109)"/>
<path d="M0 0 C2.64 0 5.28 0 8 0 C8 41.91 8 83.82 8 127 C5.36 127 2.72 127 0 127 C0 85.09 0 43.18 0 0 Z " fill="#1D1D1D" transform="translate(203,90)"/>
<path d="M0 0 C2.64 0 5.28 0 8 0 C8 41.91 8 83.82 8 127 C5.36 127 2.72 127 0 127 C0 85.09 0 43.18 0 0 Z " fill="#1D1D1C" transform="translate(76,90)"/>
<path d="M0 0 C2.31 0 4.62 0 7 0 C7 41.58 7 83.16 7 126 C4.69 126 2.38 126 0 126 C0 84.42 0 42.84 0 0 Z " fill="#040403" transform="translate(60,90)"/>
<path d="M0 0 C2.31 0 4.62 0 7 0 C7 41.58 7 83.16 7 126 C4.69 126 2.38 126 0 126 C0 84.42 0 42.84 0 0 Z " fill="#040303" transform="translate(220,90)"/>
<path d="M0 0 C0.7734375 0.3403125 0.7734375 0.3403125 1.5625 0.6875 C2.0575 4.1525 2.0575 4.1525 2.5625 7.6875 C3.5525 7.6875 4.5425 7.6875 5.5625 7.6875 C5.5625 10.9875 5.5625 14.2875 5.5625 17.6875 C4.5725 17.6875 3.5825 17.6875 2.5625 17.6875 C1.9025 20.9875 1.2425 24.2875 0.5625 27.6875 C1.2225 27.6875 1.8825 27.6875 2.5625 27.6875 C1.43798273 30.6594385 0.33956209 33.02190687 -1.4375 35.6875 C-2.7575 35.3575 -4.0775 35.0275 -5.4375 34.6875 C-5.685 35.30625 -5.9325 35.925 -6.1875 36.5625 C-7.64378639 39.03818687 -8.81562506 39.63875002 -11.4375 40.6875 C-11.1075 42.0075 -10.7775 43.3275 -10.4375 44.6875 C-13.25 46.75 -13.25 46.75 -16.4375 48.6875 C-19.4375 47.6875 -19.4375 47.6875 -21.04296875 45.10546875 C-21.56503906 44.03941406 -22.08710938 42.97335938 -22.625 41.875 C-23.15480469 40.81667969 -23.68460938 39.75835937 -24.23046875 38.66796875 C-25.4375 35.6875 -25.4375 35.6875 -25.4375 31.6875 C-27.4175 31.6875 -29.3975 31.6875 -31.4375 31.6875 C-31.4375 31.0275 -31.4375 30.3675 -31.4375 29.6875 C-29.4575 29.6875 -27.4775 29.6875 -25.4375 29.6875 C-25.4375 29.0275 -25.4375 28.3675 -25.4375 27.6875 C-24.261875 27.3471875 -24.261875 27.3471875 -23.0625 27 C-20.21875 25.90625 -20.21875 25.90625 -19.125 23.0625 C-18.898125 22.27875 -18.67125 21.495 -18.4375 20.6875 C-17.7775 20.6875 -17.1175 20.6875 -16.4375 20.6875 C-16.4375 18.7075 -16.4375 16.7275 -16.4375 14.6875 C-15.7775 14.6875 -15.1175 14.6875 -14.4375 14.6875 C-14.4375 13.3675 -14.4375 12.0475 -14.4375 10.6875 C-15.0975 10.6875 -15.7575 10.6875 -16.4375 10.6875 C-16.4375 8.3775 -16.4375 6.0675 -16.4375 3.6875 C-15.426875 3.584375 -14.41625 3.48125 -13.375 3.375 C-10.28155053 2.8348739 -8.47083723 2.35224752 -5.75 1.0625 C-2.4375 -0.3125 -2.4375 -0.3125 0 0 Z " fill="#2D4081" transform="translate(177.4375,135.3125)"/>
<path d="M0 0 C4.62 0 9.24 0 14 0 C14 0.99 14 1.98 14 3 C16.31 3.33 18.62 3.66 21 4 C21 3.34 21 2.68 21 2 C25.34684005 3.58066911 29.16641881 5.41970497 33 8 C33.6875 10.625 33.6875 10.625 34 13 C36.15101064 14.45713624 37.40286494 15 40 15 C41.5078125 17.1171875 41.5078125 17.1171875 43.125 19.875 C43.66382813 20.77992187 44.20265625 21.68484375 44.7578125 22.6171875 C46 25 46 25 46 27 C45.34 27 44.68 27 44 27 C44.495 30.465 44.495 30.465 45 34 C45.99 34 46.98 34 48 34 C48 38.62 48 43.24 48 48 C47.01 48 46.02 48 45 48 C44.67 50.31 44.34 52.62 44 55 C44.66 55 45.32 55 46 55 C44.41933089 59.34684005 42.58029503 63.16641881 40 67 C37.375 67.6875 37.375 67.6875 35 68 C33.54286376 70.15101064 33 71.40286494 33 74 C30.8828125 75.5078125 30.8828125 75.5078125 28.125 77.125 C27.22007812 77.66382813 26.31515625 78.20265625 25.3828125 78.7578125 C23 80 23 80 21 80 C20.67 79.34 20.34 78.68 20 78 C16.535 78.495 16.535 78.495 13 79 C13 79.99 13 80.98 13 82 C8.71 82 4.42 82 0 82 C-0.33 81.01 -0.66 80.02 -1 79 C-4.00847418 77.77479736 -4.00847418 77.77479736 -7 77 C-7.33 77.99 -7.66 78.98 -8 80 C-9.82312056 79.12598339 -11.63330341 78.22494083 -13.4375 77.3125 C-14.44683594 76.81363281 -15.45617187 76.31476563 -16.49609375 75.80078125 C-19 74 -19 74 -19.73046875 71.37109375 C-19.81941406 70.58863281 -19.90835938 69.80617188 -20 69 C-22.26669413 67.48887058 -24.4031954 66.86560153 -27 66 C-28.38671875 64.00390625 -28.38671875 64.00390625 -29.6875 61.5625 C-30.34298828 60.35787109 -30.34298828 60.35787109 -31.01171875 59.12890625 C-32 57 -32 57 -32 55 C-31.34 55 -30.68 55 -30 55 C-30.33 52.69 -30.66 50.38 -31 48 C-31.99 48 -32.98 48 -34 48 C-34 43.71 -34 39.42 -34 35 C-33.01 35 -32.02 35 -31 35 C-30.67 32.36 -30.34 29.72 -30 27 C-30.66 27 -31.32 27 -32 27 C-30.68320572 22.39122001 -29.03955429 18.73430956 -26 15 C-23.375 14.375 -23.375 14.375 -21 14 C-19.48887058 11.73330587 -18.86560153 9.5968046 -18 7 C-16.00390625 5.61328125 -16.00390625 5.61328125 -13.5625 4.3125 C-12.75941406 3.87550781 -11.95632812 3.43851562 -11.12890625 2.98828125 C-9 2 -9 2 -7 2 C-7 2.66 -7 3.32 -7 4 C-3.535 3.505 -3.535 3.505 0 3 C0 2.01 0 1.02 0 0 Z M2 2 C2 2.99 2 3.98 2 5 C0.55367187 5.05607422 0.55367187 5.05607422 -0.921875 5.11328125 C-2.18515625 5.17902344 -3.4484375 5.24476562 -4.75 5.3125 C-6.00296875 5.37050781 -7.2559375 5.42851563 -8.546875 5.48828125 C-12.05933165 6.00879236 -13.52625607 6.52023723 -16 9 C-16.309375 9.804375 -16.61875 10.60875 -16.9375 11.4375 C-18.30351824 14.73201458 -20.08563295 16.00970055 -23 18 C-23.99 18.33 -24.98 18.66 -26 19 C-27.84425989 21.26816301 -27.84425989 21.26816301 -29 24 C-28.63292383 25.88719655 -28.63292383 25.88719655 -28 28 C-28.19234903 30.69808501 -28.59822181 33.32147874 -29 36 C-29.99 36 -30.98 36 -32 36 C-32 39.3 -32 42.6 -32 46 C-31.01 46 -30.02 46 -29 46 C-28.80426392 47.43640171 -28.61872184 48.87419504 -28.4375 50.3125 C-28.33308594 51.11300781 -28.22867188 51.91351563 -28.12109375 52.73828125 C-28 55 -28 55 -29 58 C-26.88326245 62.2767387 -26.88326245 62.2767387 -23 64.625 C-22.01 64.810625 -22.01 64.810625 -21 65 C-19.64691687 66.31328657 -18.31129922 67.64499081 -17 69 C-16.34 69 -15.68 69 -15 69 C-15.33 70.32 -15.66 71.64 -16 73 C-12.33019796 75.91171789 -12.33019796 75.91171789 -8 77 C-8 76.34 -8 75.68 -8 75 C-6.51793505 75.254496 -5.03931385 75.52911762 -3.5625 75.8125 C-2.32693359 76.03873047 -2.32693359 76.03873047 -1.06640625 76.26953125 C-0.38449219 76.51058594 0.29742187 76.75164062 1 77 C1.33 77.99 1.66 78.98 2 80 C5.3 80 8.6 80 12 80 C12 78.68 12 77.36 12 76 C16.33333333 76 20.66666667 76 25 76 C27.71126384 74.57378316 27.71126384 74.57378316 30 73 C29.67 71.68 29.34 70.36 29 69 C29.61875 68.7525 30.2375 68.505 30.875 68.25 C33.35068687 66.79371361 33.95125002 65.62187494 35 63 C36.98 63.495 36.98 63.495 39 64 C41.91171789 60.33019796 41.91171789 60.33019796 43 56 C42.34 56 41.68 56 41 56 C41.66 52.7 42.32 49.4 43 46 C43.99 46 44.98 46 46 46 C46 42.7 46 39.4 46 36 C45.01 36 44.02 36 43 36 C42.01 31.05 42.01 31.05 41 26 C41.66 26 42.32 26 43 26 C41.87548273 23.0280615 40.77706209 20.66559313 39 18 C37.33927151 17.31867549 35.672233 16.65257873 34 16 C32.98131338 15.01904252 31.97648017 14.02297922 31 13 C30.34 13 29.68 13 29 13 C29.33 11.68 29.66 10.36 30 9 C26.01524016 6.20091258 23.02179241 5.55665618 18.1875 5.3125 C16.44533203 5.21388672 16.44533203 5.21388672 14.66796875 5.11328125 C13.78753906 5.07589844 12.90710938 5.03851563 12 5 C12 4.01 12 3.02 12 2 C8.7 2 5.4 2 2 2 Z " fill="#EBEAE8" transform="translate(137,107)"/>
<path d="M0 0 C0 0.66 0 1.32 0 2 C1.32 2 2.64 2 4 2 C4.33 2.99 4.66 3.98 5 5 C6.2375 5.495 6.2375 5.495 7.5 6 C8.7375 6.495 8.7375 6.495 10 7 C11.4216868 11.26506039 9.65386682 14.20037743 8.0625 18.1875 C7.77181641 18.93708984 7.48113281 19.68667969 7.18164062 20.45898438 C6.46274964 22.30924477 5.73245347 24.15506648 5 26 C4.34 26 3.68 26 3 26 C3 26.66 3 27.32 3 28 C0.0280615 26.87548273 -2.33440687 25.77706209 -5 24 C-4.67 22.68 -4.34 21.36 -4 20 C-4.5775 19.731875 -5.155 19.46375 -5.75 19.1875 C-8 18 -8 18 -10.0625 16.4375 C-12.04181496 14.81311272 -12.04181496 14.81311272 -15 14 C-16.8125 11.6875 -16.8125 11.6875 -18 9 C-17.44140625 7.00390625 -17.44140625 7.00390625 -16 5 C-13.3203125 3.515625 -13.3203125 3.515625 -10.125 2.25 C-9.07570313 1.82203125 -8.02640625 1.3940625 -6.9453125 0.953125 C-4 0 -4 0 0 0 Z " fill="#0790CD" transform="translate(126,156)"/>
<path d="M0 0 C0.99 0.66 1.98 1.32 3 2 C2.67 3.32 2.34 4.64 2 6 C2.61875 6.28875 3.2375 6.5775 3.875 6.875 C6 8 6 8 8 10 C8.804375 10.268125 9.60875 10.53625 10.4375 10.8125 C13.6536927 12.30293076 14.50075331 13.84369119 16 17 C16 17.66 16 18.32 16 19 C15.34 19 14.68 19 14 19 C14 19.66 14 20.32 14 21 C0.3667426 26.92482916 0.3667426 26.92482916 -6 25 C-6.33 22.69 -6.66 20.38 -7 18 C-7.99 18.33 -8.98 18.66 -10 19 C-10 18.01 -10 17.02 -10 16 C-10.66 16 -11.32 16 -12 16 C-10.90685917 10.32852818 -9.59101543 5.18203086 -7 0 C-4.28569464 -1.35715268 -2.88661718 -0.77445827 0 0 Z " fill="#EDBF04" transform="translate(164,114)"/>
<path d="M0 0 C3.3 0 6.6 0 10 0 C10 0.99 10 1.98 10 3 C11.134375 3.12375 12.26875 3.2475 13.4375 3.375 C14.613125 3.58125 15.78875 3.7875 17 4 C18 6 18 6 17.00390625 9.4765625 C16.53099953 10.86197936 16.05018356 12.24471547 15.5625 13.625 C15.31951172 14.33140625 15.07652344 15.0378125 14.82617188 15.765625 C14.22412795 17.51273287 13.61291983 19.25667786 13 21 C13.66 21 14.32 21 15 21 C15.33 21.66 15.66 22.32 16 23 C16.66 23 17.32 23 18 23 C18 23.66 18 24.32 18 25 C15.5625 24.625 15.5625 24.625 13 24 C12.67 23.34 12.34 22.68 12 22 C10.35 22 8.7 22 7 22 C7 21.34 7 20.68 7 20 C5.68 20 4.36 20 3 20 C3 20.66 3 21.32 3 22 C0.69 22 -1.62 22 -4 22 C-4.33 22.66 -4.66 23.32 -5 24 C-5 23.01 -5 22.02 -5 21 C-4.34 21 -3.68 21 -3 21 C-3.3609375 20.02417969 -3.721875 19.04835937 -4.09375 18.04296875 C-4.56275162 16.75790431 -5.03148779 15.47274296 -5.5 14.1875 C-5.73847656 13.54490234 -5.97695312 12.90230469 -6.22265625 12.24023438 C-7.27068746 9.35066261 -8 7.09923939 -8 4 C-5.36 3.67 -2.72 3.34 0 3 C0 2.01 0 1.02 0 0 Z " fill="#C9342D" transform="translate(139,109)"/>
<path d="M0 0 C1.93784265 0.14120714 3.87526955 0.28812873 5.8125 0.4375 C7.43091797 0.55931641 7.43091797 0.55931641 9.08203125 0.68359375 C12 1 12 1 15 2 C16.3515625 4.87109375 16.3515625 4.87109375 17.625 8.4375 C18.05039063 9.61183594 18.47578125 10.78617188 18.9140625 11.99609375 C19.45160156 13.48302734 19.45160156 13.48302734 20 15 C20.33 15.66 20.66 16.32 21 17 C18.03 17.33 15.06 17.66 12 18 C12 19.32 12 20.64 12 22 C8.7 22 5.4 22 2 22 C1.67 21.01 1.34 20.02 1 19 C-2.51190809 17.77030122 -2.51190809 17.77030122 -6 17 C-5.34496718 12.94180817 -4.05440879 9.46028718 -2.4375 5.6875 C-1.75494141 4.08455078 -1.75494141 4.08455078 -1.05859375 2.44921875 C-0.53458984 1.23685547 -0.53458984 1.23685547 0 0 Z " fill="#E1989E" transform="translate(137,165)"/>
<path d="M0 0 C0.7734375 0.3403125 0.7734375 0.3403125 1.5625 0.6875 C1.8925 2.9975 2.2225 5.3075 2.5625 7.6875 C3.5525 7.6875 4.5425 7.6875 5.5625 7.6875 C5.5625 10.9875 5.5625 14.2875 5.5625 17.6875 C4.5725 17.6875 3.5825 17.6875 2.5625 17.6875 C1.9025 20.3275 1.2425 22.9675 0.5625 25.6875 C-1.92426914 24.96319831 -4.40600173 24.2265278 -6.8828125 23.46875 C-8.7495655 22.89787752 -10.62301704 22.34878084 -12.5 21.8125 C-14.4375 20.6875 -14.4375 20.6875 -15.25 18.0625 C-15.311875 17.27875 -15.37375 16.495 -15.4375 15.6875 C-14.7775 15.6875 -14.1175 15.6875 -13.4375 15.6875 C-13.746875 14.45 -14.05625 13.2125 -14.375 11.9375 C-15.0625 9.1875 -15.75 6.4375 -16.4375 3.6875 C-15.426875 3.584375 -14.41625 3.48125 -13.375 3.375 C-10.28155053 2.8348739 -8.47083723 2.35224752 -5.75 1.0625 C-2.4375 -0.3125 -2.4375 -0.3125 0 0 Z " fill="#717C3C" transform="translate(177.4375,135.3125)"/>
<path d="M0 0 C3.68256488 0.67200089 7.19434131 1.57759362 10.75 2.75 C12.19632813 3.20632812 12.19632813 3.20632812 13.671875 3.671875 C16 5 16 5 16.828125 7.640625 C16.88484375 8.41921875 16.9415625 9.1978125 17 10 C16.34 10 15.68 10 15 10 C15 11.98 15 13.96 15 16 C15.66 16.33 16.32 16.66 17 17 C15.94995494 20.04578287 15.14924885 20.91646359 12.28515625 22.51953125 C11.22167969 22.94621094 10.15820312 23.37289062 9.0625 23.8125 C8.00160156 24.25207031 6.94070312 24.69164062 5.84765625 25.14453125 C3 26 3 26 0 25 C-0.33 22.69 -0.66 20.38 -1 18 C-1.99 18 -2.98 18 -4 18 C-4 14.7 -4 11.4 -4 8 C-3.01 8 -2.02 8 -1 8 C-0.67 5.36 -0.34 2.72 0 0 Z " fill="#DE782F" transform="translate(109,135)"/>
<path d="M0 0 C2.69990662 1.79993774 4.5418865 3.083773 6 6 C6.53252058 9.99390436 6.35389756 11.51741242 3.9375 14.8125 C0.41144744 17.43828382 -1.61141575 18.07836758 -6 18 C-8.80189446 16.23358828 -10.51524911 14.96950178 -12 12 C-12.43023798 8.12785818 -12.31669086 6.47503629 -10.125 3.1875 C-6.82233621 -0.21230096 -4.68601439 -0.45941318 0 0 Z " fill="#2E2E2C" transform="translate(147,139)"/>
<path d="M0 0 C0.99 0.33 1.98 0.66 3 1 C2.67 2.98 2.34 4.96 2 7 C2.66 7 3.32 7 4 7 C2.41933089 11.34684005 0.58029503 15.16641881 -2 19 C-4.5 19.75 -4.5 19.75 -7 20 C-8.35622245 20.96873032 -9.69417053 21.96434215 -11 23 C-11.66 23 -12.32 23 -13 23 C-13 22.34 -13 21.68 -13 21 C-11.34997172 19.64613064 -9.6825613 18.31321858 -8 17 C-7.67 16.34 -7.34 15.68 -7 15 C-5.68 15 -4.36 15 -3 15 C-1.68 12.69 -0.36 10.38 1 8 C0.34 8 -0.32 8 -1 8 C-0.67 5.36 -0.34 2.72 0 0 Z " fill="#DEE0E1" transform="translate(179,155)"/>
<path d="M0 0 C1.65 0 3.3 0 5 0 C7 2 7 2 7.3125 5.5 C7.1578125 7.2325 7.1578125 7.2325 7 9 C4 11 4 11 -1 11 C-0.67 7.37 -0.34 3.74 0 0 Z " fill="#C0C0C0" transform="translate(93,64)"/>
<path d="M0 0 C2.875 -0.125 2.875 -0.125 6 0 C8 2 8 2 8.25 5 C8 8 8 8 6 10 C4.35 10 2.7 10 1 10 C0.67 6.7 0.34 3.4 0 0 Z " fill="#DBDBDB" transform="translate(72,64)"/>
<path d="M0 0 C0.804375 0.185625 1.60875 0.37125 2.4375 0.5625 C3.283125 0.706875 4.12875 0.85125 5 1 C5.33 0.67 5.66 0.34 6 0 C7.66617115 -0.04063832 9.33388095 -0.042721 11 0 C10.34 1.98 9.68 3.96 9 6 C4.545 6.495 4.545 6.495 0 7 C0 4.69 0 2.38 0 0 Z " fill="#666666" transform="translate(236,233)"/>
<path d="M0 0 C0.66 0 1.32 0 2 0 C1.34 1.32 0.68 2.64 0 4 C-0.66 4 -1.32 4 -2 4 C-2 4.66 -2 5.32 -2 6 C-0.68 6 0.64 6 2 6 C2 6.66 2 7.32 2 8 C-1.3 8 -4.6 8 -8 8 C-8 6.02 -8 4.04 -8 2 C-5.50935112 1.31292445 -3.62113708 1 -1 1 C-0.67 0.67 -0.34 0.34 0 0 Z " fill="#C0C0C0" transform="translate(39,134)"/>
<path d="M0 0 C3.66666667 0 7.33333333 0 11 0 C11 1.65 11 3.3 11 5 C10.34 4.67 9.68 4.34 9 4 C8.67 4.66 8.34 5.32 8 6 C5.33333333 6 2.66666667 6 0 6 C0 4.02 0 2.04 0 0 Z " fill="#5B5B5B" transform="translate(163,249)"/>
<path d="M0 0 C0.99 0.66 1.98 1.32 3 2 C3 2.66 3 3.32 3 4 C0.8828125 5.5078125 0.8828125 5.5078125 -1.875 7.125 C-2.77992188 7.66382813 -3.68484375 8.20265625 -4.6171875 8.7578125 C-7 10 -7 10 -9 10 C-9.33 9.34 -9.66 8.68 -10 8 C-11.98 8.33 -13.96 8.66 -16 9 C-16.66 8.01 -17.32 7.02 -18 6 C-16.58366664 5.83052421 -15.16691467 5.66454493 -13.75 5.5 C-12.56664062 5.36078125 -12.56664062 5.36078125 -11.359375 5.21875 C-9 5 -9 5 -5 5 C-2.79927039 4.27489266 -2.79927039 4.27489266 -1 3 C-0.67 2.01 -0.34 1.02 0 0 Z " fill="#E9E6E8" transform="translate(167,177)"/>
<path d="M0 0 C2.97 0 5.94 0 9 0 C9 1.98 9 3.96 9 6 C6.03 6 3.06 6 0 6 C0 4.02 0 2.04 0 0 Z " fill="#535353" transform="translate(107,249)"/>
<path d="M0 0 C0.33 0 0.66 0 1 0 C1 3.3 1 6.6 1 10 C1.99 10 2.98 10 4 10 C5.62077189 15.61036424 6.55579195 19.46245077 4 25 C1 21.25 1 21.25 1 19 C1.66 19 2.32 19 3 19 C2.67 16.69 2.34 14.38 2 12 C1.01 12 0.02 12 -1 12 C-0.67 8.04 -0.34 4.08 0 0 Z " fill="#EAE2DC" transform="translate(104,143)"/>
<path d="M0 0 C0.66 0 1.32 0 2 0 C2 1.32 2 2.64 2 4 C2.66 4 3.32 4 4 4 C4 2.68 4 1.36 4 0 C4.99 0.33 5.98 0.66 7 1 C7 4.3 7 7.6 7 11 C6.01 11 5.02 11 4 11 C4 9.35 4 7.7 4 6 C3.34 6 2.68 6 2 6 C2 7.32 2 8.64 2 10 C1.34 10 0.68 10 0 10 C0 6.7 0 3.4 0 0 Z " fill="#B0B0B0" transform="translate(231,64)"/>
<path d="M0 0 C1.671549 0.30791692 3.33805547 0.64386903 5 1 C7.23167185 0.63143136 7.23167185 0.63143136 9 0 C9.33 1.65 9.66 3.3 10 5 C9.01 4.01 8.02 3.02 7 2 C6.67 2.99 6.34 3.98 6 5 C3.69 5.33 1.38 5.66 -1 6 C-1.625 4.125 -1.625 4.125 -2 2 C-1.34 1.34 -0.68 0.68 0 0 Z " fill="#646464" transform="translate(37,233)"/>
<path d="M0 0 C1.65 0 3.3 0 5 0 C6.125 3.75 6.125 3.75 5 6 C5.39938767 8.09821215 5.39938767 8.09821215 6 10 C5.01 9.34 4.02 8.68 3 8 C2.67 8.66 2.34 9.32 2 10 C1.34 10 0.68 10 0 10 C0 6.7 0 3.4 0 0 Z " fill="#ADADAD" transform="translate(170,64)"/>
<path d="M0 0 C3 1 3 1 5 4 C5 2.68 5 1.36 5 0 C5.99 0.33 6.98 0.66 8 1 C7.67 3.97 7.34 6.94 7 10 C5.68 8.68 4.36 7.36 3 6 C2.67 7.32 2.34 8.64 2 10 C1.34 10 0.68 10 0 10 C0 6.7 0 3.4 0 0 Z " fill="#C9C9C9" transform="translate(53,64)"/>
<path d="M0 0 C2.475 0.495 2.475 0.495 5 1 C5.0825 1.78375 5.165 2.5675 5.25 3.375 C5.73044197 6.11983754 5.73044197 6.11983754 7.9375 7.3125 C9.95388345 8.10540926 9.95388345 8.10540926 12 8 C12.33 9.98 12.66 11.96 13 14 C12.34 13.34 11.68 12.68 11 12 C9.8553125 11.566875 9.8553125 11.566875 8.6875 11.125 C5.52086996 9.79943394 3.43194282 8.43194282 1 6 C0.1875 2.75 0.1875 2.75 0 0 Z " fill="#F5F3E7" transform="translate(165,114)"/>
<path d="M0 0 C0.99 0 1.98 0 3 0 C3 1.32 3 2.64 3 4 C3.66 4 4.32 4 5 4 C5 2.68 5 1.36 5 0 C5.99 0.33 6.98 0.66 8 1 C7.67 3.97 7.34 6.94 7 10 C6.34 10 5.68 10 5 10 C5 8.68 5 7.36 5 6 C4.34 6 3.68 6 3 6 C3 7.32 3 8.64 3 10 C2.34 10 1.68 10 1 10 C0.67 6.7 0.34 3.4 0 0 Z " fill="#B7B7B7" transform="translate(211,64)"/>
<path d="M0 0 C3.3 0 6.6 0 10 0 C9 3 9 3 6.9375 4.1875 C6.298125 4.455625 5.65875 4.72375 5 5 C6.65 5.33 8.3 5.66 10 6 C10 6.33 10 6.66 10 7 C6.7 7 3.4 7 0 7 C0.33 6.01 0.66 5.02 1 4 C1.66 3.67 2.32 3.34 3 3 C2.01 2.67 1.02 2.34 0 2 C0 1.34 0 0.68 0 0 Z " fill="#E4E4E4" transform="translate(245,182)"/>
<path d="M0 0 C3.3 0 6.6 0 10 0 C9 3 9 3 6.9375 4.1875 C6.298125 4.455625 5.65875 4.72375 5 5 C6.65 5.33 8.3 5.66 10 6 C10 6.33 10 6.66 10 7 C6.7 7 3.4 7 0 7 C0.33 6.01 0.66 5.02 1 4 C1.66 3.67 2.32 3.34 3 3 C2.01 2.67 1.02 2.34 0 2 C0 1.34 0 0.68 0 0 Z " fill="#E4E4E4" transform="translate(245,149)"/>
<path d="M0 0 C2 1 2 1 2.8515625 3.28515625 C3.10679688 4.20167969 3.36203125 5.11820312 3.625 6.0625 C3.88539062 6.98160156 4.14578125 7.90070313 4.4140625 8.84765625 C4.60742188 9.55792969 4.80078125 10.26820312 5 11 C3.68 11 2.36 11 1 11 C1 10.01 1 9.02 1 8 C-0.98 8.99 -0.98 8.99 -3 10 C-2.69201674 8.51988629 -2.378482 7.04092675 -2.0625 5.5625 C-1.88847656 4.73878906 -1.71445312 3.91507812 -1.53515625 3.06640625 C-1 1 -1 1 0 0 Z " fill="#767676" transform="translate(46,64)"/>
<path d="M0 0 C3.3 0 6.6 0 10 0 C9.67 0.99 9.34 1.98 9 3 C6.4375 4.1875 6.4375 4.1875 4 5 C5.65 5.33 7.3 5.66 9 6 C9 6.33 9 6.66 9 7 C6.03 7 3.06 7 0 7 C0.33 6.01 0.66 5.02 1 4 C1.66 3.67 2.32 3.34 3 3 C2.01 2.67 1.02 2.34 0 2 C0 1.34 0 0.68 0 0 Z " fill="#D5D5D5" transform="translate(31,165)"/>
<path d="M0 0 C0.66 0 1.32 0 2 0 C2.99 3.3 3.98 6.6 5 10 C4.34 10 3.68 10 3 10 C3 9.34 3 8.68 3 8 C2.01 8 1.02 8 0 8 C0 8.99 0 9.98 0 11 C-0.99 11 -1.98 11 -3 11 C-2.01 7.37 -1.02 3.74 0 0 Z " fill="#878787" transform="translate(182,64)"/>
<path d="M0 0 C0.66 0 1.32 0 2 0 C2 1.65 2 3.3 2 5 C2.66 5 3.32 5 4 5 C4 3.35 4 1.7 4 0 C4.99 0.66 5.98 1.32 7 2 C7.66 1.34 8.32 0.68 9 0 C9 1.98 9 3.96 9 6 C8.34 6 7.68 6 7 6 C6.67 5.67 6.34 5.34 6 5 C6 5.66 6 6.32 6 7 C4.02 7 2.04 7 0 7 C0 4.69 0 2.38 0 0 Z " fill="#757575" transform="translate(118,233)"/>
<path d="M0 0 C1.65 0 3.3 0 5 0 C5.625 1.8125 5.625 1.8125 6 4 C5.01 5.485 5.01 5.485 4 7 C3.34 6.67 2.68 6.34 2 6 C2 6.99 2 7.98 2 9 C1.34 9 0.68 9 0 9 C0 6.03 0 3.06 0 0 Z " fill="#5C5C5C" transform="translate(110,206)"/>
<path d="M0 0 C0.99 0 1.98 0 3 0 C3 0.99 3 1.98 3 3 C6.3 3 9.6 3 13 3 C13 2.01 13 1.02 13 0 C13.99 0.33 14.98 0.66 16 1 C15.34 2.32 14.68 3.64 14 5 C9.71 5 5.42 5 1 5 C0.67 3.35 0.34 1.7 0 0 Z " fill="#F8F7F7" transform="translate(136,184)"/>
<path d="M0 0 C0.66 0 1.32 0 2 0 C2.99 3.3 3.98 6.6 5 10 C4.34 10 3.68 10 3 10 C3 9.34 3 8.68 3 8 C2.01 8 1.02 8 0 8 C0 8.99 0 9.98 0 11 C-0.99 11 -1.98 11 -3 11 C-2.01 7.37 -1.02 3.74 0 0 Z " fill="#7D7D7D" transform="translate(127,64)"/>
<path d="M0 0 C0.66 0 1.32 0 2 0 C2 1.65 2 3.3 2 5 C2.66 5 3.32 5 4 5 C4 3.35 4 1.7 4 0 C4.66 0 5.32 0 6 0 C6.33 0.66 6.66 1.32 7 2 C7.66 1.34 8.32 0.68 9 0 C9 1.98 9 3.96 9 6 C8.01 6 7.02 6 6 6 C3.99690671 6.31421071 1.99628664 6.6451046 0 7 C0 4.69 0 2.38 0 0 Z " fill="#858585" transform="translate(147,233)"/>
<path d="M0 0 C2 2 2 2 2 5 C0.42249576 5.41846009 -1.16244248 5.80896389 -2.75 6.1875 C-3.63171875 6.40792969 -4.5134375 6.62835938 -5.421875 6.85546875 C-8 7 -8 7 -10.328125 5.55078125 C-10.87984375 5.03902344 -11.4315625 4.52726562 -12 4 C-10.35 3.34 -8.7 2.68 -7 2 C-7 2.66 -7 3.32 -7 4 C-3.535 3.505 -3.535 3.505 0 3 C0 2.01 0 1.02 0 0 Z " fill="#DCD5D9" transform="translate(137,107)"/>
<path d="M0 0 C3 1 3 1 5 4 C5 2.68 5 1.36 5 0 C5.99 0.33 6.98 0.66 8 1 C7.67 3.97 7.34 6.94 7 10 C5.68 8.68 4.36 7.36 3 6 C2.67 7.32 2.34 8.64 2 10 C1.34 9.67 0.68 9.34 0 9 C0 6.03 0 3.06 0 0 Z " fill="#C9C9C9" transform="translate(251,64)"/>
<path d="M0 0 C1.65 0 3.3 0 5 0 C5.33 1.65 5.66 3.3 6 5 C5.01 5.33 4.02 5.66 3 6 C3 7.32 3 8.64 3 10 C2.34 10 1.68 10 1 10 C0.67 6.7 0.34 3.4 0 0 Z " fill="#B8B8B8" transform="translate(161,64)"/>
<path d="M0 0 C3.375 0.3125 3.375 0.3125 7 1 C7.66 1.99 8.32 2.98 9 4 C9.66 3.01 10.32 2.02 11 1 C10.67 2.65 10.34 4.3 10 6 C7.61435923 5.42415568 5.33317216 4.77772405 3 4 C2.67 4.66 2.34 5.32 2 6 C1.34 6 0.68 6 0 6 C0 4.02 0 2.04 0 0 Z " fill="#8C8C8C" transform="translate(80,249)"/>
<path d="M0 0 C1.32 0 2.64 0 4 0 C4.33 1.98 4.66 3.96 5 6 C4.01 6.495 4.01 6.495 3 7 C3 5.35 3 3.7 3 2 C2.34 2 1.68 2 1 2 C0.67 3.32 0.34 4.64 0 6 C-1.9375 6.5625 -1.9375 6.5625 -4 7 C-5 6 -5 6 -5.0625 3.4375 C-5.041875 2.633125 -5.02125 1.82875 -5 1 C-4.67 2.32 -4.34 3.64 -4 5 C-3.01 5 -2.02 5 -1 5 C-0.67 3.35 -0.34 1.7 0 0 Z " fill="#C8C8C8" transform="translate(36,183)"/>
<path d="M0 0 C0.66 0.66 1.32 1.32 2 2 C2.99 2 3.98 2 5 2 C4.67 3.32 4.34 4.64 4 6 C-0.75 7.125 -0.75 7.125 -3 6 C-3 4.68 -3 3.36 -3 2 C-2.01 1.34 -1.02 0.68 0 0 Z " fill="#202020" transform="translate(249,170)"/>
<path d="M0 0 C0.33 1.32 0.66 2.64 1 4 C1.99 4 2.98 4 4 4 C4.33 2.68 4.66 1.36 5 0 C5 1.32 5 2.64 5 4 C5.99 4 6.98 4 8 4 C8 2.68 8 1.36 8 0 C8.66 0 9.32 0 10 0 C10 1.98 10 3.96 10 6 C6.7 6 3.4 6 0 6 C0 4.02 0 2.04 0 0 Z " fill="#C1C1C1" transform="translate(31,145)"/>
<path d="M0 0 C1.47906892 -0.02689216 2.95827483 -0.04634621 4.4375 -0.0625 C5.26121094 -0.07410156 6.08492187 -0.08570313 6.93359375 -0.09765625 C9 0 9 0 10 1 C10.125 3.5 10.125 3.5 10 6 C9 7 9 7 6.93359375 7.09765625 C6.10988281 7.08605469 5.28617188 7.07445312 4.4375 7.0625 C3.61121094 7.05347656 2.78492188 7.04445312 1.93359375 7.03515625 C1.29550781 7.02355469 0.65742188 7.01195312 0 7 C0 6.34 0 5.68 0 5 C2.64 4.67 5.28 4.34 8 4 C7.67 3.34 7.34 2.68 7 2 C4.67843403 1.59270772 2.3431213 1.25561323 0 1 C0 0.67 0 0.34 0 0 Z " fill="#CACACA" transform="translate(245,138)"/>
<path d="M0 0 C0.66 0.33 1.32 0.66 2 1 C2.6328125 3.06640625 2.6328125 3.06640625 3.125 5.5625 C3.29257813 6.38878906 3.46015625 7.21507813 3.6328125 8.06640625 C3.75398438 8.70449219 3.87515625 9.34257813 4 10 C3.34 10 2.68 10 2 10 C2 9.34 2 8.68 2 8 C1.01 8 0.02 8 -1 8 C-1 8.66 -1 9.32 -1 10 C-1.66 10 -2.32 10 -3 10 C-2.69201674 8.51988629 -2.378482 7.04092675 -2.0625 5.5625 C-1.88847656 4.73878906 -1.71445313 3.91507812 -1.53515625 3.06640625 C-1 1 -1 1 0 0 Z " fill="#B0B0B0" transform="translate(106,64)"/>
<path d="M0 0 C0.66 0 1.32 0 2 0 C2 4.29 2 8.58 2 13 C0.35 13.66 -1.3 14.32 -3 15 C-3 13.68 -3 12.36 -3 11 C-2.01 11 -1.02 11 0 11 C0 7.37 0 3.74 0 0 Z " fill="#F6F6F5" transform="translate(183,142)"/>
<path d="M0 0 C0.99 0.33 1.98 0.66 3 1 C2.67 3.64 2.34 6.28 2 9 C3.65 8.34 5.3 7.68 7 7 C6.67 8.32 6.34 9.64 6 11 C4.02 11 2.04 11 0 11 C0 7.37 0 3.74 0 0 Z " fill="#9E9E9E" transform="translate(148,64)"/>
<path d="M0 0 C0.66 0 1.32 0 2 0 C2.99 3.3 3.98 6.6 5 10 C4.34 10 3.68 10 3 10 C3 9.34 3 8.68 3 8 C1.68 8 0.36 8 -1 8 C-1.33 8.66 -1.66 9.32 -2 10 C-1.34 6.7 -0.68 3.4 0 0 Z " fill="#B3B3B3" transform="translate(85,64)"/>
<path d="M0 0 C0.66 0 1.32 0 2 0 C2.66 2.97 3.32 5.94 4 9 C3.67 8.34 3.34 7.68 3 7 C1.02 7.66 -0.96 8.32 -3 9 C-2.69181644 7.68647977 -2.37832335 6.37420428 -2.0625 5.0625 C-1.88847656 4.33160156 -1.71445313 3.60070312 -1.53515625 2.84765625 C-1 1 -1 1 0 0 Z " fill="#4D4D4D" transform="translate(132,206)"/>
<path d="M0 0 C0.66 0 1.32 0 2 0 C2.66 3.3 3.32 6.6 4 10 C3.34 10 2.68 10 2 10 C1.34 9.01 0.68 8.02 0 7 C-0.33 8.32 -0.66 9.64 -1 11 C-1.66 11 -2.32 11 -3 11 C-2.69078116 9.54096742 -2.37751201 8.08279278 -2.0625 6.625 C-1.88847656 5.81289062 -1.71445312 5.00078125 -1.53515625 4.1640625 C-1 2 -1 2 0 0 Z " fill="#B8B8B8" transform="translate(27,64)"/>
<path d="M0 0 C1.32 0 2.64 0 4 0 C4 2.31 4 4.62 4 7 C2.68 7 1.36 7 0 7 C-1.125 2.25 -1.125 2.25 0 0 Z " fill="#565656" transform="translate(171,29)"/>
<path d="M0 0 C0.66 0.33 1.32 0.66 2 1 C2.6328125 3.06640625 2.6328125 3.06640625 3.125 5.5625 C3.29257813 6.38878906 3.46015625 7.21507813 3.6328125 8.06640625 C3.75398437 8.70449219 3.87515625 9.34257813 4 10 C3.34 10 2.68 10 2 10 C2 9.34 2 8.68 2 8 C1.01 8 0.02 8 -1 8 C-1 8.66 -1 9.32 -1 10 C-1.66 10 -2.32 10 -3 10 C-2.67 8.68 -2.34 7.36 -2 6 C-1.01 6 -0.02 6 1 6 C0.34 5.67 -0.32 5.34 -1 5 C-0.67 3.35 -0.34 1.7 0 0 Z " fill="#BBBBBB" transform="translate(244,64)"/>
<path d="M0 0 C1.32 0 2.64 0 4 0 C3.67 0.99 3.34 1.98 3 3 C3 2.34 3 1.68 3 1 C2.34 1 1.68 1 1 1 C1 1.99 1 2.98 1 4 C2.32 4.66 3.64 5.32 5 6 C4.67 7.32 4.34 8.64 4 10 C2.35 10 0.7 10 -1 10 C-0.67 9.01 -0.34 8.02 0 7 C1.485 7.99 1.485 7.99 3 9 C2.319375 8.2575 1.63875 7.515 0.9375 6.75 C-1 4 -1 4 -0.75 1.6875 C-0.5025 1.130625 -0.255 0.57375 0 0 Z " fill="#C8C8C8" transform="translate(268,64)"/>
<path d="M0 0 C1.32 0 2.64 0 4 0 C3.67 0.66 3.34 1.32 3 2 C2.34 1.67 1.68 1.34 1 1 C2.0209375 2.11375 2.0209375 2.11375 3.0625 3.25 C5 6 5 6 4.75 8.3125 C4.5025 8.869375 4.255 9.42625 4 10 C2.35 10 0.7 10 -1 10 C-0.67 9.01 -0.34 8.02 0 7 C1.485 7.99 1.485 7.99 3 9 C2.319375 8.2575 1.63875 7.515 0.9375 6.75 C-1 4 -1 4 -0.75 1.6875 C-0.5025 1.130625 -0.255 0.57375 0 0 Z " fill="#C8C8C8" transform="translate(204,64)"/>
<path d="M0 0 C1.32 0 2.64 0 4 0 C3.67 0.66 3.34 1.32 3 2 C2.34 1.67 1.68 1.34 1 1 C2.0209375 2.11375 2.0209375 2.11375 3.0625 3.25 C5 6 5 6 4.75 8.3125 C4.5025 8.869375 4.255 9.42625 4 10 C2.35 10 0.7 10 -1 10 C-0.67 9.01 -0.34 8.02 0 7 C1.485 7.99 1.485 7.99 3 9 C2.319375 8.2575 1.63875 7.515 0.9375 6.75 C-1 4 -1 4 -0.75 1.6875 C-0.5025 1.130625 -0.255 0.57375 0 0 Z " fill="#C5C5C5" transform="translate(35,64)"/>
<path d="M0 0 C1.65 0 3.3 0 5 0 C5.33 1.65 5.66 3.3 6 5 C4.68 5.33 3.36 5.66 2 6 C1.67 7.32 1.34 8.64 1 10 C0.67 6.7 0.34 3.4 0 0 Z " fill="#B1B1B1" transform="translate(117,64)"/>
<path d="M0 0 C1.98 0.66 3.96 1.32 6 2 C6 1.34 6 0.68 6 0 C8.97 0.33 11.94 0.66 15 1 C14.34 1.66 13.68 2.32 13 3 C9.875 2.625 9.875 2.625 7 2 C6.67 2.99 6.34 3.98 6 5 C4.02 4.01 2.04 3.02 0 2 C0 1.34 0 0.68 0 0 Z " fill="#EFEEEF" transform="translate(123,182)"/>
<path d="M0 0 C0.66 0.33 1.32 0.66 2 1 C-0.3864917 6.05374714 -3.06856921 7.70433394 -8 10 C-10.9375 10.25 -10.9375 10.25 -13 10 C-13 9.34 -13 8.68 -13 8 C-11.02 8 -9.04 8 -7 8 C-7 7.34 -7 6.68 -7 6 C-6.21625 5.7525 -5.4325 5.505 -4.625 5.25 C-1.67682892 3.84610901 -1.0975223 2.99324263 0 0 Z " fill="#3E4255" transform="translate(159,157)"/>
<path d="M0 0 C3.3 0 6.6 0 10 0 C10 0.99 10 1.98 10 3 C6.7 3.33 3.4 3.66 0 4 C0 2.68 0 1.36 0 0 Z " fill="#979797" transform="translate(31,128)"/>
<path d="M0 0 C1.65 0 3.3 0 5 0 C5 1.65 5 3.3 5 5 C3.125 5.625 3.125 5.625 1 6 C0.34 5.34 -0.32 4.68 -1 4 C-0.625 1.875 -0.625 1.875 0 0 Z " fill="#696969" transform="translate(211,249)"/>
<path d="M0 0 C1.65 0 3.3 0 5 0 C5 1.98 5 3.96 5 6 C3.35 6 1.7 6 0 6 C0 4.02 0 2.04 0 0 Z " fill="#6B6B6B" transform="translate(98,233)"/>
<path d="M0 0 C1.98 0 3.96 0 6 0 C4.68 0.33 3.36 0.66 2 1 C2 1.99 2 2.98 2 4 C3.32 4.33 4.64 4.66 6 5 C4.68 5 3.36 5 2 5 C2 5.99 2 6.98 2 8 C3.32 8.33 4.64 8.66 6 9 C4.02 9 2.04 9 0 9 C0 6.03 0 3.06 0 0 Z " fill="#323232" transform="translate(120,206)"/>
<path d="M0 0 C1.32 0.33 2.64 0.66 4 1 C4 2.98 4 4.96 4 7 C2.68 7.33 1.36 7.66 0 8 C0 5.36 0 2.72 0 0 Z " fill="#1D1D1D" transform="translate(74,65)"/>
<path d="M0 0 C0.99 0 1.98 0 3 0 C3.33 1.32 3.66 2.64 4 4 C4.66 2.68 5.32 1.36 6 0 C6.66 0.33 7.32 0.66 8 1 C7.01 3.97 6.02 6.94 5 10 C3 9 3 9 2.1484375 6.93359375 C1.89320312 6.10988281 1.63796875 5.28617187 1.375 4.4375 C1.11460938 3.61121094 0.85421875 2.78492187 0.5859375 1.93359375 C0.39257812 1.29550781 0.19921875 0.65742187 0 0 Z " fill="#C2C2C2" transform="translate(15,64)"/>
<path d="M0 0 C1.32 0 2.64 0 4 0 C4.625 1.875 4.625 1.875 5 4 C4.34 4.66 3.68 5.32 3 6 C0.875 5.625 0.875 5.625 -1 5 C-0.67 3.35 -0.34 1.7 0 0 Z " fill="#717171" transform="translate(177,249)"/>
<path d="M0 0 C2.31 0 4.62 0 7 0 C6.34 1.98 5.68 3.96 5 6 C3.68 6 2.36 6 1 6 C0.67 4.02 0.34 2.04 0 0 Z " fill="#939393" transform="translate(93,249)"/>
<path d="M0 0 C2.475 0.495 2.475 0.495 5 1 C4.67 2.65 4.34 4.3 4 6 C2.68 6 1.36 6 0 6 C0 4.02 0 2.04 0 0 Z " fill="#7E7E7E" transform="translate(204,249)"/>
<path d="M0 0 C1.32 0 2.64 0 4 0 C4 1.98 4 3.96 4 6 C2.35 5.67 0.7 5.34 -1 5 C-0.67 3.35 -0.34 1.7 0 0 Z " fill="#707070" transform="translate(159,233)"/>
<path d="M0 0 C2.0625 0.4375 2.0625 0.4375 4 1 C3.67 2.65 3.34 4.3 3 6 C1.68 6 0.36 6 -1 6 C-1.042721 4.33388095 -1.04063832 2.66617115 -1 1 C-0.67 0.67 -0.34 0.34 0 0 Z " fill="#727272" transform="translate(84,233)"/>
<path d="M0 0 C0.804375 0.4640625 0.804375 0.4640625 1.625 0.9375 C4.3984957 2.17827439 7.00042837 2.5909675 10 3 C10 3.66 10 4.32 10 5 C6.7 5.66 3.4 6.32 0 7 C0.66 6.01 1.32 5.02 2 4 C1.34 2.68 0.68 1.36 0 0 Z " fill="#D0D0D0" transform="translate(245,110)"/>
<path d="M0 0 C1.65 0 3.3 0 5 0 C5 1.98 5 3.96 5 6 C3.35 6 1.7 6 0 6 C0 4.02 0 2.04 0 0 Z " fill="#777777" transform="translate(101,249)"/>
<path d="M0 0 C0.66 0 1.32 0 2 0 C2.33 0.66 2.66 1.32 3 2 C3.99 1.34 4.98 0.68 6 0 C6 1.98 6 3.96 6 6 C5.34 5.67 4.68 5.34 4 5 C1.90178785 5.39938767 1.90178785 5.39938767 0 6 C0 4.02 0 2.04 0 0 Z " fill="#9C9C9C" transform="translate(72,249)"/>
<path d="M0 0 C3.3 0 6.6 0 10 0 C10 1.32 10 2.64 10 4 C6.7 4 3.4 4 0 4 C0 2.68 0 1.36 0 0 Z " fill="#C0C0C0" transform="translate(31,176)"/>
<path d="M0 0 C1.98 0.495 1.98 0.495 4 1 C3.67 2.98 3.34 4.96 3 7 C1 6 1 6 -1 4 C-0.625 1.875 -0.625 1.875 0 0 Z " fill="#686868" transform="translate(165,29)"/>
<path d="M0 0 C1.32 0.33 2.64 0.66 4 1 C4.33 2.65 4.66 4.3 5 6 C3.35 6 1.7 6 0 6 C0 4.02 0 2.04 0 0 Z " fill="#797979" transform="translate(66,249)"/>
<path d="M0 0 C1.32 0 2.64 0 4 0 C4 1.98 4 3.96 4 6 C2.68 6 1.36 6 0 6 C0 4.02 0 2.04 0 0 Z " fill="#737373" transform="translate(198,249)"/>
<path d="M0 0 C1.32 0 2.64 0 4 0 C4 1.98 4 3.96 4 6 C2.68 6 1.36 6 0 6 C0 4.02 0 2.04 0 0 Z " fill="#797979" transform="translate(135,233)"/>
<path d="M0 0 C1.32 0 2.64 0 4 0 C4 1.98 4 3.96 4 6 C2.68 6 1.36 6 0 6 C0 4.02 0 2.04 0 0 Z " fill="#7B7B7B" transform="translate(129,233)"/>
<path d="M0 0 C1.66666667 0 3.33333333 0 5 0 C5 1.98 5 3.96 5 6 C3.33333333 6 1.66666667 6 0 6 C0 4.02 0 2.04 0 0 Z " fill="#8C8C8C" transform="translate(104,233)"/>
<path d="M0 0 C1.32 0 2.64 0 4 0 C4 1.98 4 3.96 4 6 C2.68 6 1.36 6 0 6 C0 4.02 0 2.04 0 0 Z " fill="#737373" transform="translate(74,233)"/>
<path d="M0 0 C0.33 1.32 0.66 2.64 1 4 C-2.3 4 -5.6 4 -9 4 C-9 3.01 -9 2.02 -9 1 C-4.545 0.505 -4.545 0.505 0 0 Z " fill="#C2C2C2" transform="translate(254,130)"/>
<path d="M0 0 C0.66 0 1.32 0 2 0 C2 2.64 2 5.28 2 8 C1.01 8 0.02 8 -1 8 C-1.04241723 5.66705225 -1.04092937 3.33297433 -1 1 C-0.67 0.67 -0.34 0.34 0 0 Z " fill="#010101" transform="translate(146,65)"/>
<path d="M0 0 C0.99 0 1.98 0 3 0 C3 2.64 3 5.28 3 8 C2.01 8 1.02 8 0 8 C0 5.36 0 2.72 0 0 Z " fill="#595959" transform="translate(152,29)"/>
<path d="M0 0 C0.99 0.33 1.98 0.66 3 1 C3 3.31 3 5.62 3 8 C2.01 8 1.02 8 0 8 C0 5.36 0 2.72 0 0 Z " fill="#070707" transform="translate(95,65)"/>
<path d="M0 0 C0.99 0 1.98 0 3 0 C3.6875 1.8125 3.6875 1.8125 4 4 C2.5625 5.75 2.5625 5.75 1 7 C-1 4 -1 4 -0.625 1.8125 C-0.41875 1.214375 -0.2125 0.61625 0 0 Z " fill="#707070" transform="translate(159,29)"/>
<path d="M0 0 C1.65 0 3.3 0 5 0 C5.33 2.31 5.66 4.62 6 7 C5.01 7.33 4.02 7.66 3 8 C3 5.69 3 3.38 3 1 C2.01 1.33 1.02 1.66 0 2 C0 1.34 0 0.68 0 0 Z " fill="#0C0C0C" transform="translate(134,28)"/>
<path d="M0 0 C1.32 0 2.64 0 4 0 C3.67 1.98 3.34 3.96 3 6 C0.525 5.01 0.525 5.01 -2 4 C-1 1 -1 1 0 0 Z " fill="#A0A0A0" transform="translate(186,249)"/>
<path d="M0 0 C1.32 0 2.64 0 4 0 C3.34 2.64 2.68 5.28 2 8 C1.01 8 0.02 8 -1 8 C-0.67 5.36 -0.34 2.72 0 0 Z " fill="#7A7A7A" transform="translate(129,29)"/>
<path d="M0 0 C2.475 0.495 2.475 0.495 5 1 C4.67 2.98 4.34 4.96 4 7 C2 5.1875 2 5.1875 0 3 C0 2.01 0 1.02 0 0 Z " fill="#777777" transform="translate(120,29)"/>
<path d="M0 0 C0.33 0.66 0.66 1.32 1 2 C1.66 2 2.32 2 3 2 C3.33 1.34 3.66 0.68 4 0 C4 1.98 4 3.96 4 6 C2.68 6 1.36 6 0 6 C0 4.02 0 2.04 0 0 Z " fill="#909090" transform="translate(153,249)"/>
<path d="M0 0 C1.66666667 0 3.33333333 0 5 0 C5 1.98 5 3.96 5 6 C2 6 2 6 0 5 C0 3.35 0 1.7 0 0 Z " fill="#919191" transform="translate(174,233)"/>
<path d="M0 0 C-0.78375 0.45375 -1.5675 0.9075 -2.375 1.375 C-5.03698031 2.88428742 -5.03698031 2.88428742 -7 5 C-7.66 4.67 -8.32 4.34 -9 4 C-8 1 -8 1 -6.1875 -0.25 C-3.66056586 -1.11637742 -2.47778006 -0.88492145 0 0 Z " fill="#EBE5E9" transform="translate(127,113)"/>
<path d="M0 0 C0.66 0 1.32 0 2 0 C2.99 3.3 3.98 6.6 5 10 C4.34 10 3.68 10 3 10 C2.67 8.02 2.34 6.04 2 4 C1.34 4 0.68 4 0 4 C0 2.68 0 1.36 0 0 Z " fill="#CACACA" transform="translate(182,64)"/>
<path d="M0 0 C0.66 0.33 1.32 0.66 2 1 C2.6328125 3.06640625 2.6328125 3.06640625 3.125 5.5625 C3.29257812 6.38878906 3.46015625 7.21507813 3.6328125 8.06640625 C3.75398438 8.70449219 3.87515625 9.34257813 4 10 C3.34 10 2.68 10 2 10 C1.67 8.02 1.34 6.04 1 4 C0.34 4 -0.32 4 -1 4 C-0.67 2.68 -0.34 1.36 0 0 Z " fill="#CCCCCC" transform="translate(46,64)"/>
<path d="M0 0 C2.64 0 5.28 0 8 0 C7.01 0.495 7.01 0.495 6 1 C5.34227572 4.02934491 5.34227572 4.02934491 5 7 C4.34 6.34 3.68 5.68 3 5 C3 3.68 3 2.36 3 1 C2.01 0.67 1.02 0.34 0 0 Z " fill="#181818" transform="translate(15,63)"/>
<path d="M0 0 C1.32 0 2.64 0 4 0 C3.49396008 2.16874252 3.00016187 3.99967627 2 6 C1.34 6 0.68 6 0 6 C0 4.02 0 2.04 0 0 Z " fill="#8B8B8B" transform="translate(107,249)"/>
<path d="M0 0 C1.32 0.33 2.64 0.66 4 1 C4 2.65 4 4.3 4 6 C2.66666667 6 1.33333333 6 0 6 C0 4.02 0 2.04 0 0 Z " fill="#9E9E9E" transform="translate(141,233)"/>
<path d="M0 0 C3.3 0 6.6 0 10 0 C9 2 9 2 7.25 2.6875 C4.60760177 3.05449975 2.57327078 2.64331769 0 2 C0 1.34 0 0.68 0 0 Z " fill="#B0B0B0" transform="translate(245,182)"/>
<path d="M0 0 C3.3 0 6.6 0 10 0 C9 2 9 2 7.25 2.6875 C4.60760177 3.05449975 2.57327078 2.64331769 0 2 C0 1.34 0 0.68 0 0 Z " fill="#ADADAD" transform="translate(245,149)"/>
<path d="M0 0 C0.99 0 1.98 0 3 0 C3.33 1.65 3.66 3.3 4 5 C2.68 5 1.36 5 0 5 C-0.5625 3.0625 -0.5625 3.0625 -1 1 C-0.67 0.67 -0.34 0.34 0 0 Z " fill="#757575" transform="translate(32,135)"/>
<path d="M0 0 C2 2 2 2 2 5 C-0.31 5.33 -2.62 5.66 -5 6 C-5 5.34 -5 4.68 -5 4 C-3.35 3.67 -1.7 3.34 0 3 C0 2.01 0 1.02 0 0 Z " fill="#EDE8E8" transform="translate(137,107)"/>
<path d="M0 0 C0.66 0 1.32 0 2 0 C2.99 3.3 3.98 6.6 5 10 C4.34 10 3.68 10 3 10 C0.96564469 6.27034861 0 4.33094958 0 0 Z " fill="#D0D0D0" transform="translate(127,64)"/>
<path d="M0 0 C1.32 0.33 2.64 0.66 4 1 C4 1.99 4 2.98 4 4 C4.33 4.66 4.66 5.32 5 6 C3.33333333 6 1.66666667 6 0 6 C0 4.02 0 2.04 0 0 Z " fill="#B0B0B0" transform="translate(163,249)"/>
<path d="M0 0 C1.32 0 2.64 0 4 0 C3.34 1.65 2.68 3.3 2 5 C0.68 4.67 -0.64 4.34 -2 4 C-1 1 -1 1 0 0 Z " fill="#ABABAB" transform="translate(137,249)"/>
<path d="M0 0 C1.65 0 3.3 0 5 0 C4.625 2.4375 4.625 2.4375 4 5 C3.01 5.495 3.01 5.495 2 6 C1.34 4.02 0.68 2.04 0 0 Z " fill="#8D8D8D" transform="translate(191,233)"/>
<path d="M0 0 C1.32 0 2.64 0 4 0 C3.814375 0.61875 3.62875 1.2375 3.4375 1.875 C2.76313824 4.04160178 2.76313824 4.04160178 4 6 C2.68 6 1.36 6 0 6 C0 4.02 0 2.04 0 0 Z " fill="#939393" transform="translate(61,233)"/>
<path d="M0 0 C0.99 0 1.98 0 3 0 C3 1.98 3 3.96 3 6 C1.68 6 0.36 6 -1 6 C-0.67 5.34 -0.34 4.68 0 4 C-0.33 3.01 -0.66 2.02 -1 1 C-0.67 0.67 -0.34 0.34 0 0 Z " fill="#8B8B8B" transform="translate(249,233)"/>
<path d="M0 0 C0.99 0.33 1.98 0.66 3 1 C3.6875 3.0625 3.6875 3.0625 4 5 C2.02 5 0.04 5 -2 5 C-1.34 3.35 -0.68 1.7 0 0 Z " fill="#929292" transform="translate(169,234)"/>
<path d="M0 0 C2 3.75 2 3.75 2 6 C2.99 5.67 3.98 5.34 5 5 C5 5.66 5 6.32 5 7 C3.02 7 1.04 7 -1 7 C-0.67 4.69 -0.34 2.38 0 0 Z " fill="#393939" transform="translate(27,68)"/>
<path d="M0 0 C1.5625 1.6875 1.5625 1.6875 3 4 C2.6875 6.75 2.6875 6.75 2 9 C1.34 9 0.68 9 0 9 C0 6.03 0 3.06 0 0 Z " fill="#858585" transform="translate(53,65)"/>
</svg>
